<svg version="1.0" xmlns="http://www.w3.org/2000/svg" width="144" height="144" viewBox="0 0 1440 1440"><path d="M583 1364c-234-51-419-217-499-449-25-70-28-94-28-200 0-103 4-132 27-201 68-207 236-370 447-436 115-35 265-33 384 6 220 72 388 254 446 483 37 148 16 306-62 456-133 255-440 402-715 341zm250-69c184-39 335-155 414-320 84-176 82-352-7-532-67-136-189-241-340-294-52-18-87-23-180-23-142-1-228 24-338 97C9 473 44 1043 444 1241c133 65 256 82 389 54z"/><path d="M550 715V450h80v460h250v70H550V715z"/></svg>