<!DOCTYPE svg PUBLIC "-//W3C//DTD SVG 20010904//EN" "http://www.w3.org/TR/2001/REC-SVG-20010904/DTD/svg10.dtd">
<svg version="1.0" xmlns="http://www.w3.org/2000/svg" width="144px" height="144px" viewBox="0 0 1440 1440" preserveAspectRatio="xMidYMid meet">
<g id="layer101" fill="#000000" stroke="none">
 <path d="M583 1364 c-234 -51 -419 -217 -499 -449 -25 -70 -28 -94 -28 -200 0 -103 4 -132 27 -201 68 -207 236 -370 447 -436 115 -35 265 -33 384 6 220 72 388 254 446 483 37 148 16 306 -62 456 -133 255 -440 402 -715 341z m250 -69 c184 -39 335 -155 414 -320 84 -176 82 -352 -7 -532 -67 -136 -189 -241 -340 -294 -52 -18 -87 -23 -180 -23 -142 -1 -228 24 -338 97 -373 250 -338 820 62 1018 133 65 256 82 389 54z"/>
 <path d="M550 715 l0 -265 40 0 40 0 0 230 0 230 125 0 125 0 0 35 0 35 -165 0 -165 0 0 -265z"/>
 </g>

</svg>